<svg width="63" height="65" viewBox="0 0 63 65" fill="none" xmlns="http://www.w3.org/2000/svg">
<path d="M16.3881 62.1493C20.3781 55.967 22.4064 48.2818 23.8796 40.9704C26.0029 30.4322 27.212 19.3832 27.253 8.57906C27.2542 8.2472 26.7709 1.27324 26.552 3.40412C25.7245 11.4592 25.2579 19.498 24.011 27.5059C22.7492 35.6094 25.5218 32.4571 23.9737 40.5C23.0191 45.4594 20.4303 41.5781 20.2433 36.5142C19.9888 29.6173 18.8117 21.1926 12.7518 17.4436C11.1328 16.4419 8.73595 15.612 6.88127 16.3175C3.81212 17.4851 3.51821 22.4872 3.31075 25.3497C2.94615 30.3804 1.89449 42.9804 7.80128 45.0912C10.7213 46.1347 14.3044 44.7102 17.0452 43.7495C20.6307 42.4928 24.1719 40.9212 27.5596 39.1256C29.6773 38.0032 31.687 36.7029 33.693 35.3642C33.9807 35.1722 35.1554 34.1273 35.5988 34.0465C36.7474 33.8371 33.6591 36.9817 34.613 37.7121C35.7199 38.5595 38.8282 30.6082 41.6008 35.46C44.2138 40.0327 46.4338 36.8768 48.3256 33.2559" stroke="#4C3B51" stroke-width="5" stroke-linecap="round" stroke-linejoin="round"/>
<path d="M49.5085 31.9621C51.91 36.9122 54.0906 33.3201 57 30.6684" stroke="#4C3B51" stroke-width="5" stroke-linecap="round" stroke-linejoin="round"/>
<path d="M23 46.4636C27.6615 47.4582 31.5221 46.8582 36.2955 46.3541C44.1915 45.5201 52.0733 44.7087 60 44" stroke="#4C3B51" stroke-width="5" stroke-linecap="round" stroke-linejoin="round"/>
</svg>
